<?xml version="1.0" encoding="utf-8"?>
<svg version="1.1" xmlns:xlink="http://www.w3.org/1999/xlink" width="124px" height="40px" xmlns="http://www.w3.org/2000/svg">
  <defs>
    <radialGradient cx="108" cy="346" r="62" gradientTransform="matrix(-1 0 0 -0.32258064516129 216 457.612903225806 )" gradientUnits="userSpaceOnUse" id="RadialGradient4">
      <stop id="Stop5" stop-color="#17a246" offset="0" />
      <stop id="Stop6" stop-color="#000000" offset="1" />
    </radialGradient>
  </defs>
  <g transform="matrix(1 0 0 1 -46 -326 )">
    <path d="M 46.5 331  A 4.5 4.5 0 0 1 51 326.5 L 165 326.5  A 4.5 4.5 0 0 1 169.5 331 L 169.5 361  A 4.5 4.5 0 0 1 165 365.5 L 51 365.5  A 4.5 4.5 0 0 1 46.5 361 L 46.5 331  Z " fill-rule="nonzero" fill="url(#RadialGradient4)" stroke="none" />
    <path d="M 46.5 331  A 4.5 4.5 0 0 1 51 326.5 L 165 326.5  A 4.5 4.5 0 0 1 169.5 331 L 169.5 361  A 4.5 4.5 0 0 1 165 365.5 L 51 365.5  A 4.5 4.5 0 0 1 46.5 361 L 46.5 331  Z " stroke-width="1" stroke="#000000" fill="none" />
  </g>
</svg>